<?xml version="1.0" encoding="iso-8859-1"?>
<!-- Generator: Adobe Illustrator 19.0.0, SVG Export Plug-In . SVG Version: 6.00 Build 0)  -->
<svg version="1.1" id="Layer_1" xmlns="http://www.w3.org/2000/svg" xmlns:xlink="http://www.w3.org/1999/xlink" x="0px" y="0px"
	 viewBox="0 0 512 512" style="enable-background:new 0 0 512 512;" xml:space="preserve">
<g>
	<polyline style="fill:#CCC3A8;" points="394.536,243.634 409.205,243.634 473.577,243.634 473.577,213.296 409.205,213.296 
		102.792,213.296 38.424,213.296 38.424,243.634 102.792,243.634 366.152,243.634 	"/>
	<polygon style="fill:#CCC3A8;" points="473.577,405.24 409.205,405.24 102.792,405.24 38.424,405.24 38.424,435.579 
		102.792,435.579 409.205,435.579 473.577,435.579 	"/>
	<polyline style="fill:#CCC3A8;" points="394.536,51.69 409.205,51.69 473.577,51.69 473.577,21.352 409.205,21.352 102.792,21.352 
		38.424,21.352 38.424,51.69 102.792,51.69 366.152,51.69 	"/>
</g>
<path style="fill:#F28838;" d="M231.568,310.392h-10.771h-12.915H197.11h-66.375h-10.771h-12.916H96.276
	c-3.38,0-6.119,2.741-6.119,6.12v82.611c0,3.379,2.739,6.118,6.119,6.118h10.771h12.915h10.771h66.375h10.771h12.915h10.771
	c3.38,0,6.119-2.739,6.119-6.118v-82.611C237.688,313.133,234.949,310.392,231.568,310.392z"/>
<path style="fill:#4BAF78;" d="M278.276,118.448h10.771h12.915h10.771h66.375h10.771h12.915h10.771c3.38,0,6.119,2.741,6.119,6.12
	v82.611c0,3.379-2.739,6.118-6.119,6.118h-10.771H389.88h-10.771h-66.375h-10.771h-12.915h-10.771c-3.38,0-6.119-2.739-6.119-6.118
	v-82.611C272.157,121.189,274.895,118.448,278.276,118.448z"/>
<path style="fill:#EA6428;" d="M231.568,310.392h-10.771h-12.915H197.11h-66.375h-10.771h-12.916H96.276
	c-3.38,0-6.119,2.741-6.119,6.12v27.236h147.53v-27.236C237.688,313.133,234.949,310.392,231.568,310.392z"/>
<path style="fill:#1E834E;" d="M278.276,118.448h10.771h12.915h10.771h66.375h10.771h12.915h10.771c3.38,0,6.119,2.741,6.119,6.12
	v27.236H272.157v-27.236C272.157,121.189,274.895,118.448,278.276,118.448z"/>
<g>
	<path style="fill:#FFB92E;" d="M419.687,285.253c0-5.977-4.846-10.825-10.825-10.825H248.514c-5.978,0-10.826,4.848-10.826,10.825
		v109.162c0,5.981,4.848,10.825,10.826,10.825h160.349c5.979,0,10.825-4.844,10.825-10.825V285.253H419.687z"/>
	<path style="fill:#FFB92E;" d="M90.157,93.308c0-5.978,4.846-10.825,10.825-10.825h160.349c5.978,0,10.826,4.847,10.826,10.825
		v109.163c0,5.98-4.848,10.825-10.826,10.825H100.983c-5.979,0-10.825-4.845-10.825-10.825V93.308z"/>
</g>
<g>
	<polygon style="fill:#7C7A75;" points="352.144,333.067 352.144,274.428 305.233,274.428 305.233,333.067 328.688,314.526 	"/>
	<rect x="305.238" y="379.785" style="fill:#7C7A75;" width="46.911" height="25.454"/>
	<polygon style="fill:#7C7A75;" points="157.7,141.122 157.7,82.484 204.611,82.484 204.611,141.122 181.156,122.582 	"/>
	<rect x="157.696" y="187.845" style="fill:#7C7A75;" width="46.911" height="25.456"/>
	<polygon style="fill:#7C7A75;" points="87.763,243.634 38.424,292.975 38.424,243.634 	"/>
	<polygon style="fill:#7C7A75;" points="424.237,243.634 473.577,292.975 473.577,243.634 	"/>
	<polygon style="fill:#7C7A75;" points="87.763,51.69 38.424,101.031 38.424,51.69 	"/>
	<polygon style="fill:#7C7A75;" points="424.237,51.69 473.577,101.031 473.577,51.69 	"/>
	<polygon style="fill:#7C7A75;" points="87.763,435.579 38.424,484.92 38.424,435.579 	"/>
	<polygon style="fill:#7C7A75;" points="424.237,435.579 473.577,484.92 473.577,435.579 	"/>
</g>
<g>
	<path style="fill:#36A1CB;" d="M503.916,95.754V21.595c0-7.461-6.048-13.509-13.509-13.509h-3.32
		c-7.461,0-13.509,6.048-13.509,13.509v81.2v306.413v81.2c0,7.461,6.048,13.509,13.509,13.509h3.32
		c7.461,0,13.509-6.048,13.509-13.509v-81.2V123.419"/>
	<path style="fill:#36A1CB;" d="M8.084,21.593v81.2v306.413v81.2c0,7.461,6.048,13.509,13.509,13.509h3.32
		c7.461,0,13.509-6.048,13.509-13.509v-81.2V102.793v-81.2c0-7.461-6.048-13.509-13.509-13.509h-3.32
		C14.132,8.084,8.084,14.132,8.084,21.593z"/>
</g>
<path style="fill:#EF711D;" d="M119.167,401.946v-82.611c0-3.379,2.739-6.12,6.118-6.12h-10.785h-10.772
	c-3.379,0-6.118,2.741-6.118,6.12v82.611c0,3.379,2.739,6.118,6.118,6.118h10.772h10.785
	C121.906,408.064,119.167,405.325,119.167,401.946z"/>
<path style="fill:#299956;" d="M301.158,210.002v-82.611c0-3.379,2.739-6.12,6.118-6.12h-10.785h-10.772
	c-3.379,0-6.118,2.741-6.118,6.12v82.611c0,3.379,2.739,6.118,6.118,6.118h10.772h10.785
	C303.897,216.12,301.158,213.381,301.158,210.002z"/>
<g>
	<path style="fill:#EF9A1D;" d="M266.697,397.239V288.077c0-5.977,4.848-10.825,10.825-10.825h-21.558
		c-5.977,0-10.825,4.848-10.825,10.825v109.162c0,5.981,4.848,10.825,10.825,10.825h21.558
		C271.545,408.064,266.697,403.22,266.697,397.239z"/>
	<path style="fill:#EF9A1D;" d="M119.697,205.295V96.133c0-5.978,4.846-10.825,10.825-10.825h-21.558
		c-5.979,0-10.825,4.847-10.825,10.825v109.162c0,5.98,4.846,10.825,10.825,10.825h21.558
		C124.543,216.12,119.697,211.275,119.697,205.295z"/>
</g>
<g>
	<polygon style="fill:#C9B585;" points="50.234,216.12 45.191,216.12 45.191,246.458 50.234,246.458 70.865,246.458 73.089,246.458 
		74.238,246.458 79.281,246.458 79.281,216.12 74.238,216.12 	"/>
	<polygon style="fill:#C9B585;" points="50.234,408.064 45.191,408.064 45.191,438.403 50.234,438.403 74.238,438.403 
		79.281,438.403 79.281,408.064 74.238,408.064 	"/>
	<polygon style="fill:#C9B585;" points="74.238,24.176 50.234,24.176 45.191,24.176 45.191,54.515 50.234,54.515 70.865,54.515 
		73.089,54.515 74.238,54.515 79.281,54.515 79.281,24.176 	"/>
</g>
<path style="fill:#DD4D14;" d="M119.167,319.336c0-3.379,2.739-6.12,6.118-6.12h-10.785h-10.772c-3.379,0-6.118,2.741-6.118,6.12
	v27.236h21.558V319.336z"/>
<path style="fill:#147540;" d="M301.158,127.392c0-3.379,2.739-6.12,6.118-6.12h-10.785h-10.772c-3.379,0-6.118,2.741-6.118,6.12
	v27.236h21.558V127.392z"/>
<g>
	<path style="fill:#605E5A;" d="M181.155,190.664h-16.989c-3.571,0-6.467,2.896-6.467,6.467v18.988h23.456V190.664z"/>
	<path style="fill:#605E5A;" d="M181.155,85.308h-23.456v45.283c0,2.479,1.417,4.74,3.65,5.821c0.895,0.434,1.859,0.647,2.817,0.647
		c1.429,0,2.847-0.473,4.011-1.394l12.979-10.257V85.308z"/>
	<path style="fill:#605E5A;" d="M328.689,382.609H311.7c-3.572,0-6.467,2.896-6.467,6.467v18.987h23.456V382.609z"/>
	<path style="fill:#605E5A;" d="M328.689,277.252h-23.456v45.283c0,2.479,1.417,4.74,3.65,5.821c2.231,1.081,4.884,0.789,6.83-0.747
		l12.975-10.258l0.002,0.002V277.252z"/>
</g>
<g>
	<path style="fill:#231F20;" d="M503.916,103.837c4.466,0,8.084-3.62,8.084-8.084V21.593C512,9.687,502.313,0,490.407,0h-3.32
		c-8.956,0-16.653,5.483-19.919,13.268H44.834C41.568,5.483,33.87,0,24.913,0h-3.32C9.687,0,0,9.687,0,21.593v468.813
		C0,502.313,9.687,512,21.593,512h3.32c11.906,0,21.593-9.687,21.593-21.593v-2.136l44.605-44.607h329.774l44.605,44.607v2.136
		c0,11.906,9.687,21.593,21.593,21.593h3.32c11.906,0,21.593-9.687,21.593-21.593V123.419c0-4.465-3.618-8.084-8.084-8.084
		s-8.084,3.62-8.084,8.084v366.988c0,2.991-2.434,5.425-5.425,5.425h-3.32c-2.991,0-5.425-2.434-5.425-5.425v-5.486v-49.341V405.24
		V292.975v-49.34v-30.338V101.03V51.69V21.593c0-2.991,2.434-5.425,5.425-5.425h3.32c2.991,0,5.425,2.434,5.425,5.425v74.159
		C495.832,100.218,499.45,103.837,503.916,103.837z M87.763,427.495H46.507v-14.171h49.769h135.293h16.946h56.719h46.911h56.718
		h56.63v14.171h-41.255H87.763z M98.241,202.471V93.308c0-1.511,1.23-2.741,2.741-2.741h48.634v50.554
		c0,3.099,1.772,5.925,4.561,7.276c2.787,1.352,6.105,0.988,8.536-0.933l18.444-14.577l18.441,14.577
		c1.456,1.15,3.228,1.742,5.014,1.742c1.198,0,2.403-0.266,3.523-0.808c2.79-1.351,4.561-4.177,4.561-7.276V90.568h48.635
		c1.511,0,2.742,1.23,2.742,2.741v31.259v27.236v50.668c0,1.511-1.231,2.741-2.742,2.741h-48.635v-17.371
		c0-4.465-3.618-8.084-8.084-8.084h-46.911c-4.466,0-8.084,3.62-8.084,8.084v17.371h-48.632
		C99.47,205.212,98.241,203.982,98.241,202.471z M165.785,90.568h30.743v33.86l-10.356-8.187c-2.937-2.322-7.087-2.323-10.027,0
		l-10.36,8.188L165.785,90.568L165.785,90.568z M411.603,205.212H280.241v-2.741v-42.583h131.362L411.603,205.212L411.603,205.212z
		 M411.603,143.719H280.241v-17.187h131.362L411.603,143.719L411.603,143.719z M196.527,205.212h-30.743v-9.287h30.743V205.212z
		 M100.983,221.38H157.7h46.911h56.719h16.946h135.293h51.924v14.17h-41.255h-29.7c-4.466,0-8.084,3.62-8.084,8.084
		c0,4.465,3.618,8.084,8.084,8.084h26.351l44.604,44.605v100.832H427.55c0.132-0.898,0.222-1.808,0.222-2.741V285.253
		c0-10.426-8.483-18.91-18.91-18.91h-56.718h-46.911h-56.719c-10.428,0-18.911,8.483-18.911,18.91v17.054H96.275
		c-7.832,0-14.203,6.371-14.203,14.204v27.235v53.409H46.507V296.324l44.604-44.605h275.041c4.466,0,8.084-3.62,8.084-8.084
		c0-4.465-3.618-8.084-8.084-8.084H87.763H46.507v-14.17H100.983z M465.493,273.458l-21.739-21.739h21.739V273.458z M344.06,397.156
		h-30.743v-9.286h30.743V397.156z M352.144,371.701h-46.911c-4.466,0-8.084,3.62-8.084,8.084v17.37h-48.635
		c-1.511,0-2.742-1.23-2.742-2.741v-50.668v-27.235v-31.259c0-1.511,1.231-2.741,2.742-2.741h48.635v50.555
		c0,3.099,1.772,5.925,4.561,7.276c1.12,0.542,2.324,0.808,3.523,0.808c1.786,0,3.559-0.592,5.014-1.742l18.441-14.577
		l18.444,14.577c2.431,1.922,5.747,2.284,8.536,0.933c2.79-1.351,4.561-4.177,4.561-7.276v-50.555h48.634
		c1.511,0,2.741,1.23,2.741,2.741v109.162c0,1.511-1.23,2.741-2.741,2.741h-48.634v-17.37
		C360.228,375.32,356.61,371.701,352.144,371.701z M98.241,351.831h131.362v42.583v2.741H98.241V351.831z M229.603,335.663H98.241
		v-17.187h131.362V335.663z M313.317,282.512h30.743v33.861l-10.36-8.189c-1.468-1.161-3.241-1.742-5.012-1.742
		c-1.771,0-3.544,0.581-5.013,1.742l-10.356,8.188v-33.86H313.317z M46.507,251.719h21.739l-21.739,21.739V251.719z M46.507,59.775
		h21.739L46.507,81.514V59.775z M465.493,81.514l-21.739-21.739h21.739V81.514z M465.493,43.606h-41.255h-29.7
		c-4.466,0-8.084,3.62-8.084,8.084s3.618,8.084,8.084,8.084h26.351l44.604,44.604v100.832h-37.721v-53.409v-27.236
		c0-7.832-6.371-14.204-14.203-14.204H280.241V93.308c0-10.426-8.483-18.91-18.911-18.91h-56.719H157.7h-56.718
		c-10.426,0-18.91,8.483-18.91,18.91V202.47c0,0.933,0.091,1.843,0.222,2.741H46.507V104.379l44.604-44.604h275.041
		c4.466,0,8.084-3.62,8.084-8.084s-3.618-8.084-8.084-8.084H87.763H46.507v-14.17h418.985v14.17H465.493z M30.338,490.407
		c0,2.991-2.434,5.425-5.425,5.425h-3.32c-2.991,0-5.425-2.434-5.425-5.425V21.593c0-2.991,2.434-5.425,5.425-5.425h3.32
		c2.991,0,5.425,2.434,5.425,5.425V51.69v49.34v112.265v30.338v49.34v112.265v30.34v49.341V490.407z M46.507,465.404v-21.74h21.739
		L46.507,465.404z M443.754,443.664h21.739v21.74L443.754,443.664z"/>
	<path style="fill:#231F20;" d="M189.721,365.298h-46.349c-4.466,0-8.084,3.618-8.084,8.084s3.618,8.084,8.084,8.084h46.349
		c4.466,0,8.084-3.618,8.084-8.084C197.806,368.918,194.186,365.298,189.721,365.298z"/>
	<path style="fill:#231F20;" d="M320.123,189.523h46.349c4.466,0,8.084-3.62,8.084-8.084c0-4.465-3.618-8.084-8.084-8.084h-46.349
		c-4.466,0-8.084,3.62-8.084,8.084C312.039,185.903,315.658,189.523,320.123,189.523z"/>
</g>
<g>
</g>
<g>
</g>
<g>
</g>
<g>
</g>
<g>
</g>
<g>
</g>
<g>
</g>
<g>
</g>
<g>
</g>
<g>
</g>
<g>
</g>
<g>
</g>
<g>
</g>
<g>
</g>
<g>
</g>
</svg>
