<?xml version="1.0" encoding="utf-8"?>
<!-- Svg Vector Icons : http://www.onlinewebfonts.com/icon -->
<!DOCTYPE svg PUBLIC "-//W3C//DTD SVG 1.1//EN" "http://www.w3.org/Graphics/SVG/1.1/DTD/svg11.dtd">
<svg version="1.1" xmlns="http://www.w3.org/2000/svg" xmlns:xlink="http://www.w3.org/1999/xlink" x="0px" y="0px" viewBox="0 0 1000 1000" enable-background="new 0 0 1000 1000" xml:space="preserve">
<metadata> Svg Vector Icons : http://www.onlinewebfonts.com/icon </metadata>
<g><path d="M490.1,656H313.5c-10.8,0-19.6,9.7-19.6,21.6v10.8c0,11.9,8.8,21.6,19.6,21.6h176.6c10.8,0,19.6-9.7,19.6-21.6v-10.8C509.7,665.8,500.9,656,490.1,656z M683.4,462.4H314.3c-11.3,0-20.5,9.7-20.5,21.5v10.7c0,11.9,9.2,21.5,20.5,21.5h369.1c11.3,0,20.5-9.7,20.5-21.5v-10.7C704,472,694.7,462.4,683.4,462.4z M683.4,257.5H314.3c-11.3,0-20.5,9.7-20.5,21.6v10.8c0,11.9,9.2,21.6,20.5,21.6h369.1c11.3,0,20.5-9.7,20.5-21.6v-10.8C704,267.3,694.7,257.5,683.4,257.5z M744.6,831.4l-17.5-9.1l7.5,18.1L744.6,831.4z M867,10H133.2C109.4,10,90,30,90,54.7v890.6c0,24.7,19.3,44.7,43.1,44.7h522.3c8-1.7,22.1-6.5,36.8-20.9l196-196.6c0,0,17-16.4,21.8-43.7V54.7C910.1,30,890.8,10,867,10z M724.8,874.9c-1.3,2.9-3.5,5.7-6.8,8.7c-4.6,4.2-9.2,6.4-13.6,6.5c-4.4,0.1-8.8-1.7-13-5.3l6.6-7.3c2.7,2.1,5.1,3,7.5,3c2.4-0.1,4.6-1.2,6.9-3.2c2.4-2.2,3.7-4.3,4-6.4c0.3-2.1-0.2-3.8-1.4-5.2c-0.8-0.9-1.7-1.4-2.8-1.5c-1.1-0.1-2.5,0.1-4.1,0.9c-1.2,0.5-3.6,1.8-7.4,3.8c-4.9,2.7-8.8,3.9-11.7,4c-4.1,0-7.5-1.4-10.1-4.3c-1.7-1.9-2.8-4.1-3.2-6.7c-0.4-2.6,0-5.2,1.2-7.9c1.2-2.7,3.3-5.3,6.1-7.9c4.6-4.2,9-6.4,13.2-6.5c4.1-0.1,7.9,1.5,11,4.7l-7.1,7.1c-2.1-1.6-3.9-2.4-5.7-2.2c-1.8,0.1-3.7,1.2-5.8,3.1c-2.2,2-3.4,3.9-3.8,5.9c-0.3,1.3,0,2.4,0.9,3.3c0.8,0.9,1.9,1.3,3.2,1.2c1.7-0.1,4.6-1.3,9.1-3.7c4.4-2.5,7.9-3.9,10.4-4.6c2.6-0.7,5-0.7,7.5,0c2.5,0.7,4.7,2.2,6.8,4.5c1.9,2.1,3.2,4.6,3.6,7.5C726.5,869.1,726.1,872,724.8,874.9z M763.5,840.9l-10.8-5.4L738,848.9l4.5,11.1l-7.9,7.2l-19.2-49.7l7.9-7.2l48.2,23.3L763.5,840.9z M775.7,829.8l-33.2-36.4l7.4-6.8l27.6,30.2l18.4-16.8l5.6,6.2L775.7,829.8z M806.8,801.4l-33.5-36.7l27.3-24.8l5.7,6.2l-19.8,18l7.4,8.2l18.4-16.8l5.6,6.2l-18.4,16.8l9.2,10l20.5-18.7l5.6,6.2L806.8,801.4z M856.1,765.8c0-0.6-0.1-1.1-0.2-1.7l0.2-0.2V765.8z M856.1,720.7H688.4c-38.5,0-48,11.5-48,48.3v110.7l0,0v56.4H167.9c-13.1,0-23.7-11-23.7-24.5V88.3c0-13.6,10.6-24.5,23.7-24.5h664.4c13.1,0,23.7,10.9,23.7,24.5V720.7z"/></g>
</svg>