<?xml version="1.0" encoding="utf-8"?>
<!-- Svg Vector Icons : http://www.onlinewebfonts.com/icon -->
<!DOCTYPE svg PUBLIC "-//W3C//DTD SVG 1.1//EN" "http://www.w3.org/Graphics/SVG/1.1/DTD/svg11.dtd">
<svg version="1.1" xmlns="http://www.w3.org/2000/svg" xmlns:xlink="http://www.w3.org/1999/xlink" x="0px" y="0px" viewBox="0 0 1000 1000" enable-background="new 0 0 1000 1000" xml:space="preserve">
<metadata> Svg Vector Icons : http://www.onlinewebfonts.com/icon </metadata>
<g><path d="M283.5,309.5c-2.9,6.7-2,14.5,2.4,20.4c4.4,5.8,11.6,9,18.9,7.9l70.4-9.2c8,4.5,16.3,8.6,24.8,12c25.1,10.3,51.2,15.4,77.6,15.4c71.8,0,134-39,158.7-99.5c17-41.8,14.7-88.4-6.7-131.2c-20.9-42-57.7-75.4-103.5-94.1c-25.1-10.2-51.2-15.4-77.6-15.4c-71.8,0-134,39-158.7,99.5c-19,46.4-13.4,100.1,14.7,145.6L283.5,309.5z M327.6,130.6c18.4-45,65.8-74.1,120.9-74.1c21.1,0,42,4.2,62.2,12.4c36.6,15,65.9,41.4,82.4,74.5c16,32.2,18,66.9,5.4,97.7c-18.4,45-65.8,74.1-120.9,74.1c-21.1,0-42.1-4.2-62.3-12.4c-8.7-3.6-17.2-7.9-25.1-12.8c-3.2-2-6.9-3-10.7-3c-0.9,0-1.8,0.1-2.7,0.2l-41.7,5.5l11.1-25.7c2.8-6.5,2-14.1-2.1-19.8C318.8,211,312.6,167.5,327.6,130.6z"/><path d="M661.6,347.9l-28.3-6.7c-5.1-1.2-10.4-0.4-15,2.2c-2.9,1.7-6,3.3-9.1,4.8c-14.5,6.8-29.9,10.3-47.3,10.6c-3.3,0.3-14.8,0.8-23.7-0.9l-7.6,40.1c8.2,1.5,16.7,1.9,23,1.9c6,0,10.1-0.4,10.3-0.4c21.7-0.3,42.7-5.1,62.5-14.3c1.7-0.8,3.4-1.6,5-2.5l57.8,13.8c7.3,1.7,15-0.7,20-6.3c5-5.6,6.5-13.5,3.9-20.6l-18-48.6c19.3-35,24.2-76.3,13.3-114.9c-2.2-7.8-5.1-15.6-8.6-23.1l-36.9,17.3c2.6,5.5,4.7,11.2,6.3,16.9c8.7,30.7,3.7,63.7-13.6,90.6c-3.5,5.4-4.2,12.1-2,18.2L661.6,347.9z"/><path d="M104.1,442.3c51.9,0,94.1-42.2,94.1-94.1c0-51.9-42.2-94.1-94.1-94.1S10,296.3,10,348.2C10,400.2,52.2,442.3,104.1,442.3z M104.1,294.9c29.4,0,53.3,23.9,53.3,53.3c0,29.4-23.9,53.3-53.3,53.3s-53.3-23.9-53.3-53.3C50.8,318.8,74.7,294.9,104.1,294.9z"/><path d="M272.3,711.3c-1.6,0-2.9,0.1-4.1,0.2l-87.1-0.7V527.4c0-39.8-32.4-72.1-72.2-72.1s-72.2,32.4-72.2,72.1v203.7c0,63.5,36.3,81,54.8,81.4l115.1,6.9l0.1,109.8c3.9,40.6,26.9,55,47.1,55c3.6,0,6.4-0.3,5.2-0.4c37.1-3.8,50.3-32.3,52.2-49.3V758.2C311.2,725.8,291.7,711.3,272.3,711.3z M253.9,943.5c-0.4,0.1-0.9,0.1-1.3,0.2C253.5,943.5,253.9,943.5,253.9,943.5c-1.3-0.1-5.2-4.3-6.4-16.2v-127c0-10.8-8.4-19.7-19.2-20.4l-135.1-8.1c-0.2,0-15.6-3.3-15.6-40.7V527.4c0-17.3,14.1-31.3,31.4-31.3s31.4,14.1,31.4,31.3v203.7c0,11.2,9.1,20.3,20.2,20.4l108.9,0.8c0.2,0,0.4,0,0.5,0c0.2,1.3,0.5,3.1,0.5,5.9l0.1,173.9C270.6,932.5,269.3,941.3,253.9,943.5z"/><path d="M895.9,442.3c51.9,0,94.1-42.2,94.1-94.1c0-51.9-42.2-94.1-94.1-94.1c-51.9,0-94.1,42.2-94.1,94.1C801.8,400.2,844,442.3,895.9,442.3z M895.9,294.9c29.4,0,53.3,23.9,53.3,53.3c0,29.4-23.9,53.3-53.3,53.3s-53.3-23.9-53.3-53.3C842.6,318.8,866.5,294.9,895.9,294.9z"/><path d="M891,455.3c-39.8,0-72.2,32.4-72.2,72.1v183.5l-87.1,0.7c-1.1-0.1-2.5-0.2-4.1-0.2c-19.4,0-38.9,14.5-38.9,46.9l0.1,178.8c1.7,14.5,14.9,43.1,49.7,46.5c1.3,0.3,3.9,0.7,7.6,0.7c20.2,0,43.2-14.4,47.2-57V819.4l114.3-6.9c19.2-0.4,55.5-18,55.5-81.5V527.4C963.2,487.6,930.8,455.3,891,455.3z M922.4,731.1c0,30.5-10.4,39.9-16.4,40.7l-134.3,8.1c-10.8,0.7-19.2,9.6-19.2,20.4l0.1,125.1c-1.3,13.8-5.2,18.1-6.5,18.1l-1.1-0.2c-11.1-1.1-14.5-6.8-15.6-10.7V758.2c0-2.8,0.2-4.6,0.5-5.9c0.2,0,0.4,0,0.5,0l108.9-0.8c11.2-0.1,20.2-9.2,20.2-20.4V527.4c0-17.3,14.1-31.3,31.4-31.3c17.3,0,31.4,14.1,31.4,31.3V731.1z"/><path d="M665.6,642.1H341.3c-11.3,0-20.4,9.1-20.4,20.4v44.2c0,11.3,9.1,20.4,20.4,20.4h23.8v236.8c0,11.3,9.1,20.4,20.4,20.4h90.5c11.3,0,20.4-9.1,20.4-20.4V798.3h17.5v165.6c0,11.3,9.1,20.4,20.4,20.4h88.3c11.3,0,20.4-9.1,20.4-20.4V726h22.8c11.3,0,20.4-9.1,20.4-20.4v-43.1C686,651.2,676.9,642.1,665.6,642.1z M645.3,685.2h-22.8c-11.3,0-20.4,9.1-20.4,20.4v237.8h-47.5V777.9c0-11.3-9.1-20.4-20.4-20.4H476c-11.3,0-20.4,9.1-20.4,20.4v165.6h-49.7V706.7c0-11.3-9.1-20.4-20.4-20.4h-23.8v-3.4h283.6L645.3,685.2L645.3,685.2z"/></g>
</svg>